<?xml version="1.0" standalone="no"?>
<!DOCTYPE svg PUBLIC "-//W3C//DTD SVG 20010904//EN"
 "http://www.w3.org/TR/2001/REC-SVG-20010904/DTD/svg10.dtd">
<svg version="1.0" xmlns="http://www.w3.org/2000/svg" width="229.000000pt" height="202.000000pt" viewBox="0 0 229.000000 202.000000" preserveAspectRatio="xMidYMid meet">
    <g transform="translate(0.000000,202.000000) scale(0.100000,-0.100000)" fill="#E87A00" stroke="none">
        <path d="M0 1010 l0 -1010 1145 0 1145 0 0 1010 0 1010 -1145 0 -1145 0 0
-1010z m1774 615 c115 -55 97 -271 -40 -462 -133 -186 -335 -329 -578 -408
-96 -31 -103 -35 -144 -86 -24 -30 -77 -89 -118 -132 -42 -44 -68 -79 -61 -82
354 -114 475 -122 585 -39 32 25 34 25 53 8 19 -17 19 -18 -3 -42 -13 -13 -57
-40 -98 -60 -75 -37 -75 -37 -205 -37 -135 1 -143 2 -338 62 -113 35 -119 36
-146 20 -140 -83 -361 -92 -401 -17 -29 54 6 114 80 139 61 21 179 24 275 7
l90 -15 75 78 c41 44 83 93 93 110 l18 31 -129 0 c-148 0 -241 19 -342 70
-167 84 -251 240 -222 410 34 201 180 326 421 361 115 16 255 -2 364 -48 41
-18 42 -20 23 -46 -12 -15 -18 -17 -36 -7 -74 39 -252 60 -352 42 -185 -35
-308 -168 -316 -342 -9 -180 111 -315 325 -367 77 -18 269 -21 301 -4 20 11
60 74 212 341 189 329 294 453 435 512 51 21 137 23 179 3z"/>
        <path d="M1653 1575 c-82 -35 -182 -162 -336 -427 -47 -80 -113 -189 -146
-242 -34 -52 -61 -97 -61 -100 0 -21 207 72 310 140 240 157 411 422 370 573
-17 63 -71 85 -137 56z"/>
        <path d="M339 419 c-43 -43 5 -73 103 -64 71 5 186 42 171 54 -16 14 -115 31
-184 31 -56 0 -73 -4 -90 -21z"/>
    </g>
</svg>