<svg width="385" height="97" viewBox="0 0 385 97" fill="none" xmlns="http://www.w3.org/2000/svg">
    <path d="M14.7629 14.3438H22.5539V14.9375H15.4741V19.4375H22.1336V20.0313H15.4741V24.9688H22.6509V25.5625H14.7629V14.3438ZM23.2651 14.3438H24.1056L27.7909 19.2813L31.5086 14.3438L36.6164 8.09375L28.2112 19.8125L32.5431 25.5625H31.6703L27.7586 20.3125L23.8147 25.5625H22.9741L27.3384 19.8125L23.2651 14.3438V14.3438ZM32.8664 14.9375V14.3438H41.7565V14.9375H37.6509V25.5625H36.9397V14.9375H32.8664ZM5 14.3438H5.87284L18.222 32.0938L13.1142 25.5625L5.74353 15.1875L5.71121 25.5625H5V14.3438ZM41.6918 24.7813C41.8534 24.7813 41.9504 24.6875 41.9504 24.5313C41.9504 24.375 41.8534 24.2813 41.6918 24.2813C41.5302 24.2813 41.4332 24.375 41.4332 24.5313C41.4332 24.6875 41.5625 24.7813 41.6918 24.7813ZM42.403 24.125C42.403 24.5313 42.7263 24.8125 43.1789 24.8125C43.6638 24.8125 43.9547 24.5313 43.9547 24.0313V22.3125H43.5668V24.0313C43.5668 24.3125 43.4375 24.4375 43.1789 24.4375C42.9526 24.4375 42.7909 24.3125 42.7909 24.0938H42.403V24.125ZM44.4397 24.0938C44.472 24.5313 44.8276 24.8125 45.4095 24.8125C45.9914 24.8125 46.3793 24.5313 46.3793 24.0625C46.3793 23.6875 46.153 23.5 45.6681 23.375L45.3772 23.3125C45.0539 23.25 44.9246 23.125 44.9246 22.9688C44.9246 22.75 45.1185 22.5938 45.4418 22.5938C45.7328 22.5938 45.9267 22.7188 45.9591 22.9688H46.347C46.3147 22.5625 45.9591 22.2813 45.4418 22.2813C44.8922 22.2813 44.5366 22.5625 44.5366 23C44.5366 23.3438 44.7306 23.5625 45.1832 23.6563L45.5065 23.7188C45.8297 23.7813 45.9914 23.9063 45.9914 24.0938C45.9914 24.3125 45.7651 24.4688 45.4418 24.4688C45.1185 24.4688 44.8599 24.3125 44.8276 24.0938H44.4397V24.0938Z" fill="white"/>
    <path d="M91.9982 21.1929C91.9982 21.1929 90.9366 21.7901 92.755 21.992C94.9578 22.2351 96.0838 22.2001 98.5109 21.7567C98.5109 21.7567 99.1507 22.1432 100.042 22.4782C94.5989 24.7323 87.7235 22.3476 91.9982 21.1929ZM91.3326 18.2507C91.3326 18.2507 90.1416 19.1035 91.9613 19.2854C94.3148 19.5201 96.1727 19.5395 99.3899 18.9407C99.3899 18.9407 99.8338 19.377 100.533 19.6148C93.9537 21.4754 86.6253 19.7614 91.3326 18.2507Z" fill="#0074BD"/>
    <path d="M96.9391 13.2597C98.2811 14.7528 96.5874 16.0953 96.5874 16.0953C96.5874 16.0953 99.9925 14.3962 98.4288 12.2678C96.9679 10.2837 95.8484 9.29841 101.911 5.89966C101.911 5.89966 92.3942 8.19653 96.9391 13.2597Z" fill="#EA2D2E"/>
    <path d="M104.137 23.3689C104.137 23.3689 104.924 23.9955 103.272 24.4799C100.131 25.3996 90.1972 25.6771 87.438 24.5164C86.4469 24.0993 88.3067 23.5205 88.8915 23.3989C89.5015 23.2711 89.85 23.2946 89.85 23.2946C88.747 22.5436 82.7201 24.7693 86.7889 25.4077C97.885 27.1461 107.015 24.6246 104.137 23.3689ZM92.5093 15.2021C92.5093 15.2021 87.4568 16.3624 90.7203 16.7843C92.0987 16.9624 94.8446 16.9214 97.4043 16.7139C99.4956 16.5443 101.594 16.1814 101.594 16.1814C101.594 16.1814 100.858 16.4871 100.324 16.8389C95.1921 18.1436 85.2808 17.5358 88.1344 16.2021C90.547 15.0736 92.5093 15.2021 92.5093 15.2021ZM101.573 20.0989C106.789 17.4796 104.377 14.9621 102.694 15.3011C102.283 15.3843 102.098 15.4561 102.098 15.4561C102.098 15.4561 102.251 15.2236 102.543 15.1239C105.873 13.9927 108.434 18.4618 101.469 20.2318C101.469 20.2318 101.549 20.1618 101.573 20.0989Z" fill="#0074BD"/>
    <path d="M98.4291 0.4104C98.4291 0.4104 101.318 3.20384 95.689 7.49853C91.1754 10.9445 94.6597 12.9088 95.6871 15.1542C93.0524 12.856 91.1198 10.8329 92.4162 8.9504C94.3199 6.18728 99.5942 4.84696 98.4291 0.4104Z" fill="#EA2D2E"/>
    <path d="M93.0223 27.1997C98.0279 27.509 105.717 27.0275 105.899 24.7378C105.899 24.7378 105.549 25.6056 101.761 26.2944C97.4884 27.0719 92.2174 26.9815 89.0919 26.4828C89.0919 26.4828 89.732 26.9953 93.0223 27.1997Z" fill="#0074BD"/>
    <path d="M105.668 31.3064H105.515V31.2239H105.926V31.3064H105.774V31.718H105.668L105.668 31.3064ZM106.487 31.3271H106.485L106.334 31.718H106.264L106.114 31.3271H106.112V31.718H106.012V31.2239H106.159L106.299 31.5736L106.438 31.2239H106.585V31.718H106.487V31.3271ZM92.2018 35.9489C91.7298 36.3446 91.2307 36.5671 90.7823 36.5671C90.1442 36.5671 89.7979 36.1964 89.7979 35.603C89.7979 34.9608 90.1684 34.4905 91.6529 34.4905H92.2015V35.9489H92.2018ZM93.5049 37.3702V32.9711C93.5049 31.8464 92.8413 31.1046 91.243 31.1046C90.31 31.1046 89.4921 31.3277 88.8271 31.6114L89.0185 32.3905C89.5422 32.2046 90.2195 32.0321 90.8841 32.0321C91.8055 32.0321 92.2015 32.3905 92.2015 33.1324V33.6883H91.7411C89.5038 33.6883 88.4942 34.5274 88.4942 35.7893C88.4942 36.8764 89.1595 37.4943 90.4122 37.4943C91.2171 37.4943 91.8187 37.173 92.3803 36.7027L92.4824 37.3705H93.5049V37.3702ZM97.8536 37.3702H96.2285L94.2724 31.2174H95.6919L96.9061 34.9983L97.1761 36.1343C97.789 34.4911 98.2235 32.823 98.4407 31.2177H99.8214C99.4519 33.243 98.786 35.4671 97.8536 37.3702ZM104.089 35.9489C103.615 36.3446 103.116 36.5671 102.669 36.5671C102.03 36.5671 101.684 36.1964 101.684 35.603C101.684 34.9608 102.056 34.4905 103.539 34.4905H104.089V35.9489H104.089ZM105.393 37.3702V32.9711C105.393 31.8464 104.727 31.1046 103.13 31.1046C102.196 31.1046 101.379 31.3277 100.714 31.6114L100.905 32.3905C101.429 32.2046 102.107 32.0321 102.772 32.0321C103.692 32.0321 104.089 32.3905 104.089 33.1324V33.6883H103.629C101.391 33.6883 100.381 34.5274 100.381 35.7893C100.381 36.8764 101.046 37.4943 102.298 37.4943C103.104 37.4943 103.704 37.173 104.267 36.7027L104.37 37.3705H105.393V37.3702ZM87.0653 38.4158C86.6945 38.9405 86.0938 39.3558 85.4369 39.5899L84.7939 38.8571C85.2941 38.6089 85.7224 38.2086 85.9219 37.8355C86.0938 37.5033 86.1653 37.0761 86.1653 36.0539V29.0283H87.5502V35.9574C87.5502 37.3246 87.4377 37.8774 87.0653 38.4158Z" fill="#EA2D2E"/>
    <path d="M165.69 17.75C167.35 17.75 168.696 16.4488 168.696 14.8437C168.696 13.2387 167.35 11.9375 165.69 11.9375C164.029 11.9375 162.683 13.2387 162.683 14.8437C162.683 16.4488 164.029 17.75 165.69 17.75Z" fill="#61DAFB"/>
    <path d="M165.69 25.5312C168.05 27.75 170.377 29.0625 172.252 29.0625C172.866 29.0625 173.448 28.9375 173.933 28.6562C175.614 27.7187 176.228 25.375 175.647 22.0313C175.55 21.4375 175.42 20.8437 175.259 20.2187C175.905 20.0312 176.487 19.8438 177.069 19.6563C180.334 18.4375 182.144 16.75 182.144 14.9063C182.144 13.0313 180.334 11.3437 177.069 10.1562C176.487 9.9375 175.905 9.75 175.259 9.59375C175.42 8.96875 175.55 8.375 175.647 7.78125C176.196 4.375 175.582 2 173.901 1.0625C173.416 0.78125 172.834 0.65625 172.22 0.65625C170.377 0.65625 168.017 1.96875 165.657 4.1875C163.33 1.96875 161.002 0.65625 159.127 0.65625C158.513 0.65625 157.931 0.78125 157.446 1.0625C155.765 2 155.151 4.34375 155.733 7.6875C155.83 8.28125 155.959 8.875 156.121 9.5C155.474 9.6875 154.892 9.875 154.31 10.0625C151.045 11.2813 149.235 12.9688 149.235 14.8125C149.235 16.6875 151.045 18.375 154.31 19.5625C154.892 19.7812 155.474 19.9688 156.121 20.125C155.959 20.75 155.83 21.3437 155.733 21.9375C155.183 25.2812 155.797 27.6563 157.446 28.5625C157.931 28.8438 158.513 28.9687 159.127 28.9687C161.002 29.0312 163.33 27.7187 165.69 25.5312ZM163.879 21.3125C164.461 21.3437 165.075 21.3438 165.69 21.3438C166.304 21.3438 166.918 21.3437 167.5 21.3125C166.918 22.0625 166.304 22.75 165.69 23.4063C165.075 22.75 164.461 22.0625 163.879 21.3125V21.3125ZM159.871 18.0938C160.194 18.625 160.485 19.125 160.841 19.625C159.838 19.5 158.901 19.3438 157.996 19.1563C158.287 18.3125 158.61 17.4375 158.998 16.5625C159.256 17.0625 159.547 17.5938 159.871 18.0938V18.0938ZM157.996 10.5625C158.901 10.375 159.838 10.2187 160.841 10.0937C160.517 10.5937 160.194 11.0938 159.871 11.625C159.547 12.1563 159.256 12.6563 158.998 13.1875C158.578 12.2813 158.254 11.4062 157.996 10.5625V10.5625ZM159.774 14.8438C160.194 14 160.647 13.1563 161.164 12.3125C161.649 11.5 162.198 10.6875 162.748 9.875C163.718 9.8125 164.688 9.78125 165.69 9.78125C166.724 9.78125 167.694 9.8125 168.631 9.875C169.213 10.6875 169.731 11.5 170.216 12.3125C170.733 13.1563 171.185 14 171.606 14.8438C171.185 15.6875 170.733 16.5312 170.216 17.375C169.731 18.1875 169.181 19 168.631 19.8125C167.662 19.875 166.692 19.9063 165.69 19.9063C164.655 19.9063 163.685 19.875 162.748 19.8125C162.166 19 161.649 18.1875 161.164 17.375C160.647 16.5312 160.194 15.6875 159.774 14.8438V14.8438ZM172.414 13.1562L171.541 11.5938C171.218 11.0625 170.927 10.5625 170.571 10.0625C171.573 10.1875 172.511 10.3438 173.416 10.5313C173.125 11.4063 172.802 12.2813 172.414 13.1562ZM172.414 16.5313C172.802 17.4063 173.125 18.2813 173.416 19.125C172.511 19.3125 171.573 19.4688 170.571 19.5938C170.894 19.0938 171.218 18.5938 171.541 18.0625C171.832 17.5938 172.123 17.0625 172.414 16.5313ZM173.157 27.375C172.899 27.5312 172.575 27.5938 172.22 27.5938C170.636 27.5938 168.664 26.3438 166.724 24.4688C167.662 23.5 168.567 22.4063 169.472 21.1875C170.991 21.0625 172.446 20.8437 173.804 20.5312C173.966 21.0937 174.063 21.6563 174.159 22.2188C174.612 24.875 174.256 26.7813 173.157 27.375V27.375ZM174.838 10.9063C178.459 11.9063 180.625 13.4375 180.625 14.8438C180.625 16.0625 179.138 17.2813 176.519 18.25C176.002 18.4375 175.42 18.625 174.838 18.7812C174.418 17.5 173.901 16.1875 173.254 14.8438C173.901 13.5 174.45 12.1875 174.838 10.9063ZM172.252 2.09375C172.608 2.09375 172.899 2.15625 173.19 2.3125C174.256 2.90625 174.644 4.78125 174.192 7.46875C174.095 8 173.966 8.5625 173.836 9.15625C172.478 8.875 171.024 8.65625 169.504 8.5C168.631 7.28125 167.694 6.1875 166.756 5.21875C168.696 3.375 170.668 2.09375 172.252 2.09375V2.09375ZM167.5 8.375C166.918 8.34375 166.304 8.34375 165.69 8.34375C165.075 8.34375 164.461 8.34375 163.879 8.375C164.461 7.625 165.075 6.9375 165.69 6.28125C166.304 6.9375 166.918 7.65625 167.5 8.375ZM158.222 2.3125C158.481 2.15625 158.804 2.09375 159.159 2.09375C160.744 2.09375 162.716 3.34375 164.655 5.21875C163.718 6.1875 162.813 7.28125 161.907 8.5C160.388 8.625 158.933 8.84375 157.575 9.15625C157.414 8.59375 157.317 8.03125 157.22 7.46875C156.767 4.8125 157.123 2.9375 158.222 2.3125V2.3125ZM156.541 18.7812C152.92 17.7812 150.754 16.25 150.754 14.8438C150.754 13.625 152.241 12.4062 154.86 11.4375C155.377 11.25 155.959 11.0625 156.541 10.9063C156.961 12.1875 157.478 13.5 158.125 14.8438C157.478 16.1875 156.929 17.5312 156.541 18.7812V18.7812ZM157.22 22.2188C157.317 21.6875 157.446 21.125 157.575 20.5312C158.933 20.8125 160.388 21.0313 161.907 21.1875C162.78 22.4063 163.718 23.5 164.655 24.4688C162.716 26.3125 160.744 27.5938 159.159 27.5938C158.804 27.5938 158.513 27.5312 158.222 27.375C157.123 26.7813 156.767 24.875 157.22 22.2188V22.2188ZM155.862 35.0938C156.573 34.25 156.606 33.3125 156.218 32.375C155.83 31.4375 155.022 31 154.019 30.9688C152.823 30.9375 151.595 30.9688 150.399 30.9688H150.172V39.0625H151.142V36H152.662C152.856 36 153.017 36.0625 153.114 36.2188L155.054 39.125C155.086 39.1875 155.183 39.2812 155.248 39.2812H156.509C155.733 38.125 154.989 37.0313 154.213 35.9063C154.892 35.8125 155.474 35.5938 155.862 35.0938V35.0938ZM151.142 35.0312V31.9375H151.498C152.241 31.9375 153.017 31.9063 153.761 31.9688C154.634 32 155.248 32.6562 155.248 33.5C155.248 34.3437 154.537 35 153.664 35.0312C152.888 35.0625 152.112 35.0312 151.142 35.0312V35.0312ZM163.653 35.4375C163.136 33.25 161.067 32.6875 159.483 33.375C158.254 33.9063 157.705 34.9375 157.672 36.2188C157.64 37.1875 157.931 38.0625 158.707 38.7188C159.58 39.4688 160.647 39.5625 161.746 39.375C162.36 39.25 162.909 38.9688 163.33 38.5313C163.168 38.3125 163.006 38.0938 162.845 37.9063C161.94 38.6563 160.938 38.9063 159.838 38.4063C159.127 38.0625 158.772 37.2188 158.707 36.5938H163.718V36.1875C163.75 35.9063 163.718 35.6563 163.653 35.4375V35.4375ZM158.772 35.9375C158.675 35 159.644 34 160.711 34C161.94 33.9688 162.716 34.6875 162.748 35.9375H158.772ZM168.696 33.2188C168.211 33.125 167.694 33.0938 167.209 33.125C166.433 33.1875 165.754 33.5313 165.205 34.0938C165.366 34.3125 165.496 34.5313 165.69 34.7813C165.754 34.7188 165.819 34.6563 165.884 34.625C166.401 34.1563 167.015 33.9062 167.759 33.9687C168.341 34 168.89 34.1875 169.052 34.75C169.181 35.1875 169.149 35.6562 169.181 36.125C169.084 36.125 169.052 36.0938 169.019 36.0625C168.244 35.4375 167.371 35.3125 166.433 35.5312C165.56 35.75 165.011 36.4062 164.946 37.25C164.881 38.2187 165.334 38.9375 166.207 39.2812C166.756 39.5 167.371 39.5 167.953 39.375C168.405 39.2813 168.599 39.0313 169.246 38.6875V39.0938H170.151C170.151 37.8438 170.183 36.3125 170.151 34.875C170.151 33.9687 169.601 33.4063 168.696 33.2188ZM169.149 37.1563C169.116 37.25 169.149 37.3438 169.149 37.4375C169.149 38.0938 168.987 38.3125 168.341 38.5625C167.888 38.7188 167.403 38.7812 166.918 38.625C166.369 38.4688 165.981 38 165.981 37.4688C165.948 36.9375 166.304 36.4063 166.853 36.25C167.597 36 168.276 36.1563 168.89 36.5938C169.084 36.75 169.213 36.9063 169.149 37.1563V37.1563ZM174.192 34.0625C175.032 33.8125 175.808 33.9688 176.39 34.6563L176.487 34.7188C176.713 34.5312 176.907 34.3437 177.166 34.125C177.069 34.0312 177.037 33.9688 176.972 33.875C176.034 32.9063 174.192 32.7813 173.06 33.5625C171.476 34.6875 171.509 36.875 172.284 38.0312C173.028 39.125 174.095 39.5 175.356 39.3438C176.099 39.25 176.713 38.9062 177.198 38.3125C176.972 38.125 176.746 37.9375 176.519 37.7187C176.455 37.7812 176.422 37.8125 176.39 37.875C175.517 38.8125 174.063 38.7187 173.287 37.7187C172.834 37.125 172.737 36.4375 172.866 35.75C172.931 34.9688 173.351 34.3438 174.192 34.0625ZM180.916 38.3125C180.851 38.3438 180.819 38.375 180.819 38.375C180.56 38.5625 180.302 38.5937 180.011 38.5C179.72 38.375 179.688 38.125 179.655 37.875V34.3125C179.655 34.25 179.655 34.375 179.688 34.0625H180.916V33.125H179.623V31.5625H178.653V33.25H177.813C177.748 33.25 177.651 33.3125 177.651 33.375C177.619 33.5938 177.651 33.75 177.651 34.0625H178.685V38.0625C178.685 38.5625 178.815 39 179.267 39.25C179.752 39.5312 180.69 39.4687 181.11 39.125C181.175 39.0937 181.207 38.9688 181.207 38.9375C181.11 38.75 181.013 38.5312 180.916 38.3125V38.3125Z" fill="#61DAFB"/>
    <path d="M252.806 30.5648C250.588 30.5063 248.894 30.706 247.445 31.2963C247.033 31.4642 246.377 31.4688 246.309 31.9673C246.536 32.1963 246.571 32.5388 246.751 32.8207C247.096 33.3613 247.68 34.087 248.201 34.467C248.771 34.8826 249.358 35.3267 249.968 35.6863C251.054 36.326 252.266 36.6917 253.311 37.3326C253.927 37.7107 254.539 38.1867 255.14 38.6129C255.437 38.8238 255.637 39.1517 256.023 39.2838V39.2232C255.82 38.9732 255.768 38.6301 255.581 38.3692L254.761 37.5763C253.96 36.5476 252.942 35.6438 251.86 34.8935C250.997 34.2948 249.066 33.486 248.706 32.5157L248.643 32.4548C249.255 32.3879 249.971 32.1742 250.535 32.0276C251.484 31.782 252.332 31.8454 253.311 31.601L254.635 31.2351V30.9913C254.14 30.5004 253.787 29.8504 253.248 29.406C251.835 28.2435 250.294 27.082 248.706 26.1132C247.826 25.5763 246.738 25.2273 245.805 24.772C245.491 24.6185 244.939 24.5388 244.732 24.2838C244.242 23.6801 243.975 22.9145 243.597 22.211C242.805 20.737 242.028 19.1273 241.326 17.5763C240.848 16.5188 240.535 15.4763 239.938 14.5276C237.074 9.9754 233.991 7.22821 229.216 4.52759C228.199 3.95321 226.976 3.72665 225.683 3.42978C224.989 3.38946 224.295 3.34853 223.601 3.30759C223.178 3.13696 222.737 2.63603 222.34 2.3929C220.758 1.42665 216.699 -0.674911 215.528 2.08821C214.788 3.83228 216.634 5.53353 217.294 6.41759C217.757 7.03696 218.35 7.73228 218.681 8.42946C218.899 8.8879 218.937 9.34759 219.123 9.83228C219.581 11.0267 219.981 12.326 220.574 13.4295C220.874 13.9882 221.204 14.5763 221.583 15.0757C221.815 15.3823 222.214 15.5173 222.277 15.9904C221.887 16.5173 221.865 17.3354 221.646 18.0029C220.66 21.0076 221.032 24.7426 222.466 26.9663C222.906 27.6495 223.943 29.1135 225.368 28.5517C226.614 28.061 226.336 26.5398 226.693 25.1979C226.773 24.8938 226.724 24.6701 226.882 24.4663V24.5273L228.017 26.7223C228.858 28.0307 230.349 29.3979 231.613 30.3204C232.268 30.7988 232.784 31.6257 233.631 31.9057V31.8445H233.568C233.404 31.5973 233.147 31.4948 232.938 31.296C232.444 30.8282 231.895 30.2467 231.487 29.7107C230.338 28.2023 229.322 26.5513 228.396 24.8329C227.954 24.012 227.57 23.107 227.197 22.2717C227.054 21.9498 227.056 21.4626 226.756 21.296C226.348 21.9079 225.747 22.4029 225.431 23.1254C224.927 24.2804 224.862 25.6892 224.675 27.1498C224.564 27.1879 224.613 27.1617 224.548 27.2104C223.67 27.0057 223.361 26.1317 223.034 25.3813C222.209 23.4845 222.055 20.4307 222.782 18.2473C222.97 17.682 223.82 15.9032 223.476 15.381C223.311 14.8604 222.77 14.5592 222.467 14.1613C222.091 13.6695 221.717 13.022 221.457 12.4538C220.781 10.9754 220.466 9.31509 219.754 7.82009C219.414 7.1054 218.839 6.38196 218.366 5.74696C217.844 5.0429 217.258 4.52446 216.852 3.67353C216.708 3.37103 216.513 2.88665 216.726 2.57571C216.794 2.36603 216.89 2.27853 217.105 2.21009C217.47 1.93728 218.489 2.30071 218.87 2.45353C219.882 2.85978 220.726 3.24665 221.583 3.7954C221.994 4.05915 222.41 4.56884 222.908 4.71009H223.475C224.363 4.90728 225.358 4.77103 226.188 5.01478C227.654 5.4454 228.968 6.11571 230.162 6.84415C233.797 9.06353 236.77 12.2223 238.803 15.9907C239.131 16.5976 239.272 17.1763 239.56 17.8201C240.141 19.1179 240.874 20.4532 241.452 21.7226C242.029 22.9888 242.592 24.2667 243.408 25.3204C243.837 25.8742 245.493 26.1713 246.247 26.4792C246.774 26.6945 247.639 26.9195 248.139 27.2104C249.094 27.7673 250.019 28.4301 250.915 29.0401C251.362 29.3448 252.738 30.0138 252.806 30.5648V30.5648ZM224.611 7.33321C224.148 7.32478 223.821 7.38196 223.475 7.45478V7.51571H223.538C223.759 7.95384 224.148 8.23634 224.421 8.61353C224.631 9.04071 224.841 9.46728 225.052 9.89384L225.115 9.83353C225.505 9.56696 225.684 9.14165 225.682 8.49165C225.526 8.33259 225.503 8.13321 225.367 7.94321C225.187 7.68978 224.838 7.54571 224.611 7.33321Z" fill="#00618A"/>
    <path d="M296.44 22.4345L295.506 21.9151L305.9 4.59326L306.832 5.11076L296.44 22.4345Z" fill="#E434AA"/>
    <path d="M295.293 20.5312H316.08V21.5687H295.293V20.5312Z" fill="#E434AA"/>
    <path d="M306.101 26.8908L295.705 21.1145L296.243 20.2161L306.64 25.9926L306.101 26.8908ZM315.134 11.8348L304.736 6.05856L305.275 5.16138L315.672 10.9376L315.134 11.8348Z" fill="#E434AA"/>
    <path d="M296.245 11.8315L295.707 10.934L306.105 5.15771L306.643 6.0549L296.245 11.8315Z" fill="#E434AA"/>
    <path d="M314.942 22.4345L304.549 5.11076L305.482 4.59326L315.876 21.9151L314.942 22.4345ZM296.117 10.247H297.195V21.7995H296.117V10.247Z" fill="#E434AA"/>
    <path d="M314.184 10.2471H315.262V21.7996H314.184V10.2471Z" fill="#E434AA"/>
    <path d="M305.918 26.4517L305.447 25.6679L314.49 20.6436L314.961 21.427L305.918 26.4517Z" fill="#E434AA"/>
    <path d="M316.69 22.1363C316.067 23.1801 314.678 23.5354 313.595 22.936C313.337 22.7937 313.111 22.6037 312.93 22.3767C312.749 22.1498 312.616 21.8904 312.539 21.6136C312.461 21.3368 312.442 21.048 312.48 20.7637C312.519 20.4795 312.615 20.2054 312.764 19.9573C313.387 18.9135 314.775 18.5585 315.859 19.1579C316.95 19.7632 317.32 21.0938 316.69 22.136M298.609 12.0888C297.987 13.1313 296.598 13.4876 295.514 12.8882C295.256 12.7458 295.031 12.5556 294.849 12.3285C294.668 12.1015 294.535 11.8421 294.458 11.5652C294.381 11.2884 294.361 10.9995 294.4 10.7152C294.438 10.4309 294.535 10.1568 294.683 9.90854C295.306 8.86604 296.695 8.50947 297.778 9.10885C298.862 9.71572 299.232 11.0451 298.609 12.0888M294.69 22.1363C294.066 21.0938 294.436 19.7632 295.52 19.1579C296.604 18.5585 297.987 18.9135 298.615 19.9573C299.239 20.9998 298.869 22.3304 297.785 22.936C296.695 23.5354 295.312 23.1798 294.69 22.136M312.77 12.0888C312.148 11.0451 312.518 9.71572 313.601 9.10885C314.684 8.50947 316.067 8.86604 316.696 9.90854C317.32 10.9523 316.95 12.2817 315.865 12.8882C314.782 13.4876 313.393 13.1313 312.77 12.0888ZM305.69 28.2507C304.437 28.2507 303.424 27.2767 303.424 26.0707C303.424 24.8657 304.437 23.8917 305.69 23.8917C306.942 23.8917 307.955 24.8657 307.955 26.0707C307.955 27.2695 306.942 28.2507 305.69 28.2507ZM305.69 8.15447C304.437 8.15447 303.424 7.18041 303.424 5.97416C303.424 4.76947 304.437 3.79541 305.69 3.79541C306.942 3.79541 307.955 4.76947 307.955 5.97416C307.955 7.18041 306.942 8.15447 305.69 8.15447ZM319.469 37.9714C319.443 37.9727 319.416 37.9687 319.391 37.9597C319.366 37.9506 319.343 37.9367 319.324 37.9188C319.305 37.9003 319.291 37.8783 319.281 37.8541C319.272 37.8299 319.267 37.8041 319.269 37.7782V32.0082C319.269 31.9495 319.287 31.902 319.324 31.8667C319.343 31.8488 319.366 31.8349 319.391 31.8259C319.416 31.8169 319.443 31.8129 319.469 31.8142H319.644C319.704 31.8142 319.753 31.831 319.79 31.8667C319.808 31.8855 319.823 31.9077 319.832 31.932C319.842 31.9564 319.846 31.9823 319.844 32.0082V37.4438H322.999C323.066 37.4438 323.117 37.461 323.154 37.4963C323.191 37.532 323.208 37.582 323.208 37.6454V37.7785C323.21 37.8043 323.206 37.83 323.196 37.8541C323.187 37.8783 323.172 37.9003 323.154 37.9188C323.117 37.9542 323.066 37.9714 322.999 37.9714H319.469ZM317.358 38.5426C317.325 38.5429 317.293 38.5364 317.263 38.5236C317.233 38.5108 317.207 38.4919 317.185 38.4682C317.144 38.4271 317.104 38.3847 317.066 38.341L316.663 37.8042C316.298 37.9739 315.872 38.0592 315.384 38.0592C314.878 38.0592 314.448 37.9726 314.095 37.8004C313.741 37.627 313.47 37.3598 313.281 36.9995C313.092 36.6382 312.989 36.1829 312.971 35.6313C312.965 35.3676 312.961 35.121 312.961 34.8926C312.961 34.6645 312.965 34.4176 312.971 34.1542C312.989 33.6085 313.098 33.1557 313.299 32.7942C313.5 32.4342 313.779 32.1657 314.137 31.9898C314.492 31.8142 314.908 31.726 315.384 31.726C315.859 31.726 316.274 31.8142 316.632 31.9898C316.988 32.1657 317.268 32.4342 317.473 32.7942C317.676 33.1557 317.785 33.6085 317.797 34.1542C317.809 34.4002 317.814 34.6464 317.815 34.8926C317.815 35.1207 317.809 35.3676 317.797 35.6313C317.767 36.4698 317.544 37.0863 317.129 37.4795L317.715 38.2701C317.723 38.2796 317.729 38.29 317.733 38.301C317.739 38.3154 317.742 38.3376 317.742 38.3667C317.742 38.3897 317.737 38.4126 317.728 38.4339C317.719 38.4551 317.705 38.4743 317.687 38.4901C317.671 38.5068 317.651 38.52 317.629 38.5291C317.607 38.5381 317.584 38.5427 317.56 38.5426H317.358ZM315.384 37.532C315.908 37.532 316.339 37.3792 316.677 37.0742C317.016 36.7688 317.196 36.2732 317.222 35.5873C317.233 35.3235 317.239 35.0917 317.239 34.8926C317.239 34.6938 317.233 34.4617 317.222 34.1982C317.209 33.7404 317.122 33.3679 316.96 33.081C316.798 32.7932 316.582 32.5842 316.311 32.4513C316.041 32.3195 315.731 32.2535 315.384 32.2535C315.042 32.2535 314.736 32.3192 314.465 32.4513C314.193 32.5845 313.977 32.7932 313.816 33.081C313.654 33.3679 313.564 33.7404 313.547 34.1982C313.54 34.4617 313.537 34.6938 313.537 34.8926C313.537 35.0917 313.54 35.3238 313.547 35.5873C313.571 36.2732 313.754 36.7688 314.095 37.0742C314.436 37.3792 314.865 37.532 315.384 37.532ZM307.906 37.9714C307.879 37.9726 307.852 37.9686 307.828 37.9596C307.803 37.9506 307.78 37.9367 307.761 37.9188C307.742 37.9003 307.727 37.8783 307.718 37.8541C307.708 37.8299 307.704 37.8041 307.705 37.7782V31.9188C307.705 31.8604 307.724 31.8142 307.761 31.7785C307.78 31.7606 307.803 31.7467 307.828 31.7377C307.853 31.7287 307.879 31.7247 307.906 31.726H308.061C308.123 31.726 308.171 31.7432 308.208 31.7785C308.226 31.7971 308.241 31.8191 308.251 31.8433C308.26 31.8675 308.264 31.8933 308.263 31.9192V34.0038C308.426 33.7999 308.63 33.6297 308.862 33.5035C309.097 33.3742 309.408 33.3095 309.799 33.3095C310.213 33.3095 310.559 33.396 310.836 33.5695C311.114 33.7413 311.32 33.9757 311.458 34.2726C311.595 34.5695 311.664 34.9048 311.664 35.2798V37.7785C311.665 37.8043 311.661 37.8301 311.651 37.8542C311.642 37.8783 311.627 37.9003 311.609 37.9188C311.589 37.9369 311.566 37.9508 311.541 37.9599C311.516 37.9689 311.489 37.9728 311.462 37.9714H311.307C311.28 37.9726 311.253 37.9687 311.228 37.9596C311.203 37.9506 311.18 37.9367 311.16 37.9188C311.142 37.9002 311.127 37.8782 311.118 37.854C311.109 37.8298 311.104 37.804 311.106 37.7782V35.3235C311.106 34.8548 310.987 34.486 310.75 34.2201C310.511 33.9526 310.164 33.8198 309.707 33.8198C309.275 33.8198 308.926 33.9526 308.661 34.2198C308.396 34.486 308.263 34.8548 308.263 35.3235V37.7785C308.264 37.8044 308.26 37.8301 308.25 37.8542C308.241 37.8784 308.226 37.9004 308.208 37.9188C308.188 37.9368 308.165 37.9508 308.14 37.9598C308.115 37.9688 308.088 37.9728 308.061 37.9714H307.906ZM302.596 39.6423C302.569 39.6437 302.542 39.6398 302.517 39.6307C302.492 39.6217 302.469 39.6078 302.449 39.5898C302.431 39.5713 302.416 39.5493 302.407 39.5252C302.397 39.5011 302.393 39.4753 302.394 39.4495V33.5913C302.394 33.5329 302.413 33.4851 302.449 33.4498C302.469 33.4318 302.492 33.4179 302.517 33.4088C302.542 33.3998 302.569 33.3959 302.596 33.3973H302.751C302.812 33.3973 302.861 33.4145 302.898 33.4498C302.916 33.4686 302.93 33.4908 302.94 33.5152C302.949 33.5395 302.953 33.5654 302.952 33.5913V34.0038C303.105 33.8051 303.304 33.6392 303.551 33.507C303.798 33.3754 304.11 33.3095 304.487 33.3095C304.848 33.3095 305.149 33.3692 305.393 33.4901C305.627 33.602 305.83 33.766 305.986 33.9685C306.139 34.1685 306.252 34.391 306.325 34.6373C306.398 34.8842 306.437 35.1357 306.444 35.3945C306.45 35.4823 306.452 35.5788 306.452 35.6851C306.452 35.7898 306.45 35.8863 306.444 35.9742C306.438 36.2303 306.398 36.4847 306.325 36.731C306.252 36.9779 306.139 37.1998 305.986 37.3998C305.831 37.6025 305.627 37.7665 305.393 37.8785C305.149 37.9995 304.848 38.0592 304.488 38.0592C304.11 38.0592 303.798 37.992 303.55 37.8567C303.305 37.7223 303.105 37.5576 302.952 37.3645V39.4495C302.953 39.4753 302.949 39.5011 302.94 39.5253C302.931 39.5495 302.916 39.5715 302.898 39.5901C302.878 39.6079 302.855 39.6217 302.83 39.6307C302.805 39.6397 302.778 39.6436 302.751 39.6423H302.596ZM304.433 37.5488C304.792 37.5488 305.076 37.4732 305.283 37.3207C305.49 37.1682 305.646 36.9602 305.731 36.7226C305.822 36.4757 305.874 36.2123 305.887 35.9304C305.892 35.7664 305.892 35.6022 305.887 35.4382C305.876 35.1681 305.824 34.9011 305.731 34.646C305.646 34.4086 305.49 34.2006 305.283 34.0479C305.076 33.8954 304.792 33.8198 304.433 33.8198C304.086 33.8198 303.806 33.8992 303.592 34.0564C303.383 34.2101 303.22 34.4155 303.121 34.651C303.023 34.8788 302.965 35.1211 302.952 35.3676C302.945 35.4554 302.943 35.5701 302.943 35.7104C302.943 35.851 302.946 35.9657 302.952 36.0535C302.958 36.2879 303.014 36.5198 303.121 36.7482C303.227 36.9774 303.395 37.1751 303.606 37.3207C303.822 37.4732 304.098 37.5488 304.433 37.5488ZM298.766 38.0595C298.485 38.0623 298.208 38.002 297.956 37.8835C297.721 37.7746 297.516 37.6131 297.358 37.4123C297.207 37.2218 297.127 36.988 297.129 36.7482C297.129 36.3501 297.297 36.0304 297.632 35.7898C297.966 35.5492 298.402 35.3945 298.939 35.3235L300.383 35.1307V34.822C300.383 34.5117 300.284 34.2663 300.087 34.0882C299.888 33.9088 299.573 33.8195 299.139 33.8195C298.823 33.8195 298.567 33.8795 298.372 34.0004C298.177 34.1201 298.044 34.2773 297.97 34.4704C297.94 34.5579 297.882 34.6023 297.796 34.6023H297.65C297.577 34.6023 297.526 34.5838 297.494 34.5448C297.463 34.5059 297.447 34.458 297.449 34.4092C297.449 34.3263 297.481 34.2238 297.545 34.1017C297.609 33.9782 297.708 33.8563 297.843 33.7354C297.977 33.6157 298.15 33.5145 298.363 33.4326C298.576 33.351 298.835 33.3095 299.139 33.3095C299.5 33.3095 299.796 33.3557 300.031 33.4501C300.266 33.5438 300.449 33.6657 300.581 33.8148C300.711 33.9648 300.804 34.131 300.858 34.3117C300.914 34.4935 300.94 34.6729 300.94 34.8488V37.7785C300.942 37.8043 300.938 37.83 300.928 37.8541C300.919 37.8783 300.905 37.9003 300.886 37.9188C300.867 37.9367 300.844 37.9506 300.818 37.9596C300.793 37.9687 300.766 37.9726 300.74 37.9714H300.584C300.557 37.9726 300.531 37.9687 300.505 37.9596C300.48 37.9506 300.457 37.9367 300.438 37.9188C300.419 37.9002 300.405 37.8782 300.395 37.854C300.386 37.8298 300.382 37.804 300.383 37.7782V37.3645C300.296 37.484 300.192 37.5906 300.073 37.6807C299.939 37.787 299.766 37.876 299.556 37.9495C299.345 38.0226 299.083 38.0592 298.766 38.0592V38.0595ZM298.857 37.5488C299.137 37.5488 299.393 37.4904 299.624 37.3732C299.856 37.256 300.04 37.0754 300.177 36.8326C300.315 36.5895 300.383 36.2829 300.383 35.9132V35.6142L299.204 35.7729C298.704 35.8363 298.326 35.9485 298.07 36.106C297.815 36.2648 297.686 36.4638 297.686 36.7042C297.686 36.8982 297.744 37.057 297.861 37.1804C297.977 37.3023 298.124 37.3951 298.303 37.456C298.483 37.5185 298.667 37.5488 298.857 37.5488ZM294.578 37.9714C294.552 37.9726 294.525 37.9687 294.5 37.9596C294.474 37.9506 294.451 37.9367 294.432 37.9188C294.414 37.9001 294.399 37.878 294.39 37.8538C294.381 37.8297 294.377 37.804 294.378 37.7782V33.6001C294.378 33.5413 294.396 33.4926 294.432 33.4548C294.451 33.4357 294.473 33.4207 294.499 33.4108C294.524 33.4009 294.551 33.3963 294.578 33.3973H294.725C294.786 33.3973 294.836 33.417 294.876 33.4548C294.896 33.4739 294.911 33.4966 294.921 33.5216C294.932 33.5465 294.936 33.5733 294.936 33.6001V34.0042C295.038 33.8056 295.205 33.6451 295.411 33.5476C295.618 33.4476 295.874 33.3976 296.178 33.3976H296.517C296.577 33.3976 296.627 33.4145 296.663 33.4498C296.682 33.4686 296.696 33.4908 296.705 33.5152C296.715 33.5395 296.719 33.5654 296.717 33.5913V33.7132C296.717 33.7732 296.7 33.8195 296.663 33.8551C296.644 33.873 296.621 33.8869 296.596 33.8959C296.57 33.9049 296.544 33.9089 296.517 33.9076H296.124C295.758 33.9076 295.469 34.0101 295.255 34.2151C295.042 34.4204 294.936 34.6998 294.936 35.0513V37.7785C294.937 37.8046 294.932 37.8307 294.922 37.8549C294.912 37.8791 294.896 37.9009 294.876 37.9188C294.835 37.9545 294.78 37.9733 294.725 37.9714H294.578ZM290.621 38.0595C290.097 38.0595 289.656 37.9617 289.3 37.7651C288.95 37.5751 288.667 37.2886 288.487 36.9423C288.3 36.5907 288.199 36.1854 288.179 35.7288C288.173 35.4638 288.171 35.1857 288.171 34.8926C288.171 34.5998 288.173 34.3214 288.18 34.0564C288.199 33.5938 288.3 33.1876 288.487 32.8382C288.669 32.4931 288.954 32.2083 289.305 32.0204C289.664 31.8235 290.103 31.726 290.62 31.726C291.041 31.726 291.401 31.786 291.699 31.907C291.998 32.0263 292.242 32.1767 292.43 32.3548C292.62 32.5342 292.76 32.7138 292.851 32.8954C292.943 33.0776 292.991 33.2298 292.997 33.3532C293.001 33.3764 292.999 33.4002 292.991 33.4224C292.984 33.4447 292.97 33.4646 292.952 33.4804C292.912 33.5144 292.859 33.5319 292.806 33.5292H292.604C292.549 33.5292 292.51 33.5157 292.486 33.4901C292.461 33.4632 292.437 33.4182 292.413 33.3532C292.346 33.1615 292.241 32.9839 292.106 32.8298C291.963 32.6626 291.771 32.5245 291.53 32.4173C291.29 32.3085 290.986 32.2535 290.621 32.2535C290.078 32.2535 289.638 32.3963 289.3 32.6807C288.961 32.9651 288.781 33.4388 288.756 34.1017C288.738 34.6292 288.738 35.1572 288.756 35.6848C288.781 36.3417 288.961 36.8129 289.3 37.101C289.638 37.3879 290.078 37.532 290.621 37.532C290.981 37.532 291.303 37.466 291.589 37.3342C291.875 37.2039 292.111 36.9914 292.266 36.726C292.43 36.4542 292.512 36.106 292.512 35.6848V35.2357H290.922C290.895 35.2367 290.868 35.2321 290.843 35.2222C290.818 35.2123 290.795 35.1973 290.776 35.1782C290.739 35.1385 290.719 35.0864 290.722 35.0329V34.9098C290.722 34.8463 290.739 34.7963 290.776 34.7607C290.795 34.7428 290.818 34.729 290.844 34.7199C290.869 34.7109 290.896 34.7069 290.922 34.7082H292.879C292.945 34.7082 292.997 34.7254 293.034 34.7607C293.071 34.7963 293.088 34.8463 293.088 34.9098V35.6848C293.088 36.1535 292.992 36.5676 292.8 36.9254C292.613 37.2787 292.32 37.5695 291.959 37.7601C291.591 37.9592 291.145 38.0592 290.621 38.0592V38.0595Z" fill="#E434AA"/>
    <path d="M19.9407 57.3208L1.42285 63.8377L4.34879 88.0992L19.9604 96.6796L35.6522 87.9833L38.5772 63.7224L19.9407 57.3208Z" fill="#B3B3B3"/>
    <path d="M36.73 65.1243L19.8975 59.384V94.6293L34.0041 86.8222L36.73 65.1243Z" fill="#A6120D"/>
    <path d="M3.50031 65.2279L6.00843 86.926L19.8972 94.6295V59.3835L3.50031 65.2279Z" fill="#DD1B16"/>
    <path d="M24.531 78.1467L19.8976 80.3136H15.0138L12.7179 86.0554L8.44818 86.1348L19.8976 60.6636L24.531 78.1467ZM24.0829 77.0558L19.9282 68.8305L16.5201 76.9142H19.8972L24.0829 77.0558Z" fill="#F2F2F2"/>
    <path d="M19.8972 60.6636L19.9278 68.8305L23.795 76.9204H19.9056L19.8972 80.3083L25.275 80.3136L27.7881 86.1354L31.8737 86.2111L19.8972 60.6636Z" fill="#B3B3B3"/>
    <path fill-rule="evenodd" clip-rule="evenodd" d="M85.1981 64.1928C86.3719 64.1928 87.5456 64.2109 88.7178 64.1803C89.0287 64.1722 89.5866 64.4294 89.5616 63.7831C89.5425 63.2572 89.0547 63.4475 88.7591 63.4428C87.435 63.4219 86.1066 63.3716 84.7878 63.4544C83.8494 63.5128 83.5728 63.1566 83.6906 62.2959C83.7312 61.9991 83.6922 61.6916 83.6984 61.3891C83.7397 59.3747 84.2266 58.6891 86.1803 58.1922C88.3328 57.6453 90.5356 57.6634 92.6822 58.1347C94.6119 58.5584 95.4134 60.0597 95.3159 61.4484C95.1972 63.1431 95.2891 64.8525 95.2875 66.5556C95.2847 68.6972 94.1781 69.8337 92.0191 69.8634C90.2409 69.8878 88.4606 69.9072 86.6834 69.8578C84.5653 69.7984 83.0116 71.5578 83.0009 73.5516C83.0009 73.7028 83.0269 73.8591 82.9969 74.005C82.8444 74.7372 83.4537 75.9206 82.6775 76.1381C81.4962 76.47 80.1131 76.47 79.0712 75.4159C78.7181 75.0597 78.4206 74.6606 78.2637 74.1994C77.4266 71.7416 77.2944 69.2525 78.0825 66.7562C78.5737 65.1981 79.91 64.2291 81.5653 64.2012C82.7759 64.1809 83.9869 64.1972 85.1975 64.1972L85.1981 64.1928V64.1928ZM87.355 60.7178C87.3044 60.1231 86.9847 59.6891 86.325 59.6709C85.6034 59.6522 85.2306 60.0884 85.2297 60.7984C85.2291 61.4566 85.5875 61.8781 86.2425 61.8972C86.9622 61.9181 87.3106 61.4722 87.355 60.7178V60.7178Z" fill="#386F9F"/>
    <path fill-rule="evenodd" clip-rule="evenodd" d="M94.2575 76.2412C92.9325 76.2412 91.6069 76.2296 90.2819 76.2506C89.9834 76.2543 89.4828 76.0656 89.4672 76.5759C89.4497 77.1546 89.9869 77.004 90.3281 77.0074C91.6531 77.024 92.9794 77.0381 94.304 77.0012C94.9847 76.9824 95.2625 77.1128 95.3134 77.9153C95.5437 81.5481 93.9672 81.8621 91.0594 82.5231C89.3912 82.9021 87.6028 82.7012 85.9578 81.9643C84.5975 81.3559 83.7628 80.479 83.8681 78.8371C83.9725 77.2165 83.99 75.5749 83.8653 73.9559C83.7153 72.0018 84.9309 70.5646 87.295 70.564C88.8856 70.5637 90.4869 70.4424 92.0637 70.5874C94.3184 70.7943 96.0862 68.8399 96.1637 66.5674C96.1669 66.4921 96.1475 66.4112 96.1669 66.3412C96.3656 65.6428 95.6587 64.6046 96.6044 64.2518C98.0334 63.719 99.645 64.279 100.375 65.3634C101.295 66.7287 101.42 68.3353 101.568 69.904C101.729 71.5949 101.255 73.1868 100.545 74.7121C100.062 75.7465 99.2509 76.2465 98.1206 76.2481C96.8331 76.249 95.5459 76.2481 94.2581 76.2481C94.2575 76.2456 94.2575 76.2434 94.2575 76.2412V76.2412ZM93.9125 79.6162C93.7709 78.9706 93.4797 78.5299 92.7297 78.5115C91.9497 78.4928 91.7484 79.0762 91.7525 79.5971C91.7569 80.1509 91.9112 80.8321 92.7556 80.7684C93.4575 80.7146 93.7997 80.2799 93.9125 79.6162V79.6162Z" fill="#FFCF46"/>
    <path fill-rule="evenodd" clip-rule="evenodd" d="M73.4153 92.8902C73.4153 93.6971 73.4519 94.4527 73.3981 95.2018C73.375 95.5249 73.7312 96.133 73.0534 96.1324C72.4559 96.1324 72.3025 95.6568 72.3215 95.0821C72.3581 93.9852 72.3322 92.8861 72.3322 91.7883V89.2889C72.3322 87.7827 72.7362 87.2727 74.1769 86.9608C75.5162 86.6696 76.5687 87.1205 77.11 88.293C77.6512 89.4658 77.6931 90.6743 77.1515 91.8674C76.6178 93.043 75.6347 93.4818 74.3753 93.1333C74.0884 93.0552 73.7987 92.9874 73.4153 92.8902V92.8902ZM73.4153 89.9377C73.4153 90.3533 73.4715 90.7771 73.4037 91.1814C73.2469 92.1161 73.8437 92.3464 74.5475 92.5127C75.2434 92.6771 75.7206 92.3811 75.9997 91.768C76.4687 90.7399 76.5475 89.6796 76.1912 88.5924C75.875 87.6261 75.1447 87.513 74.2922 87.633C73.4503 87.7527 73.3362 88.3252 73.4097 89.033C73.4409 89.3314 73.4153 89.6361 73.4153 89.9377V89.9377ZM82.4737 92.8402C81.8972 92.9902 81.3965 93.1502 80.884 93.2464C79.7622 93.4561 78.9315 92.8402 78.6394 91.7171C78.2769 90.3271 78.5837 88.9424 78.5931 87.5555C78.5972 86.9233 79.1822 87.1699 79.5869 86.8311C79.5869 88.3155 79.5925 89.5968 79.585 90.8771C79.5809 91.5202 79.7472 92.0489 80.3553 92.388C81.0265 92.7624 81.5772 92.4058 82.1615 92.1655C82.5803 91.9933 82.5281 91.6418 82.5287 91.3074C82.5319 90.0974 82.5284 88.8886 82.5325 87.6786C82.5331 87.3802 82.5022 87.0155 82.9428 87.0302C83.3356 87.043 83.5065 87.2764 83.5 87.7046C83.4715 89.7068 83.5281 91.7118 83.4469 93.7111C83.3853 95.223 82.3187 96.1464 80.7844 96.2143C80.5547 96.2239 80.314 96.2452 80.2281 95.9602C80.0972 95.5214 80.4525 95.6043 80.6859 95.5296C82.3737 94.9927 82.5944 94.6721 82.4737 92.8402V92.8402ZM89.6062 87.6449C90.0528 87.4339 90.3094 87.2408 90.5915 87.1886C92.175 86.8958 93.3884 87.0074 93.3853 89.1402C93.3831 90.2386 93.3859 91.3374 93.3831 92.4355C93.3825 92.743 93.4022 93.0424 92.9437 93.0689C92.4603 93.0977 92.354 92.8211 92.3562 92.4421C92.3619 91.3836 92.3906 90.3252 92.3897 89.2671C92.389 88.4452 92.2212 87.7177 91.1759 87.7202C90.259 87.7218 89.6097 88.4061 89.605 89.3505C89.5997 90.3728 89.6 91.3951 89.6059 92.4174C89.6069 92.7805 89.6147 93.0989 89.0897 93.0689C88.6169 93.0408 88.675 92.7221 88.675 92.4286C88.6719 89.7411 88.685 87.0508 88.6622 84.3614C88.6581 83.8902 88.844 83.5977 89.2622 83.5777C89.8522 83.5505 89.5819 84.0664 89.5906 84.3252C89.629 85.3786 89.6062 86.4346 89.6062 87.6449V87.6449ZM94.6031 90.0546C94.5434 87.9561 95.5387 86.8358 97.3406 86.9008C98.245 86.9339 98.9234 87.3352 99.3612 88.1164C100.135 89.4983 100.03 90.8808 99.1931 92.1749C98.6181 93.0636 97.7337 93.4827 96.6556 93.2539C95.5925 93.0289 94.76 92.0718 94.6094 90.9561C94.5694 90.6608 94.6031 90.3549 94.6031 90.0546ZM98.7656 90.1036C98.7181 89.7374 98.7265 89.2268 98.574 88.7711C98.3656 88.1461 97.9856 87.643 97.2103 87.6086C96.4281 87.5749 96.0378 88.0321 95.7769 88.6649C95.3672 89.6583 95.3937 90.6558 95.8375 91.6314C96.1225 92.2599 96.5625 92.7199 97.325 92.5924C98.0759 92.4671 98.519 91.9749 98.6725 91.2446C98.7422 90.9136 98.7309 90.5671 98.7656 90.1039V90.1036ZM100.955 90.3833C100.955 90.0046 100.948 89.6264 100.957 89.2496C100.974 88.523 100.742 87.718 101.722 87.3468C102.844 86.923 103.956 86.6055 105.085 87.2614C105.508 87.5071 105.663 87.9533 105.668 88.4271C105.679 89.7493 105.662 91.0721 105.68 92.3943C105.686 92.8555 105.565 93.0861 105.046 93.0736C104.478 93.0602 104.598 92.6727 104.602 92.3633C104.615 91.3071 104.688 90.2518 104.668 89.1971C104.642 87.8689 103.913 87.3274 102.672 87.6533C102.157 87.7889 101.835 88.0389 101.86 88.6764C101.911 89.9208 101.872 91.1696 101.877 92.4161C101.878 92.7774 101.883 93.0974 101.362 93.0671C100.884 93.0396 100.962 92.7093 100.959 92.4227C100.95 91.7427 100.956 91.0624 100.955 90.3833V90.3833ZM87.3403 87.4383C87.2622 87.5308 87.1965 87.6758 87.1278 87.6771C85.889 87.6943 86.2328 88.6189 86.2009 89.3049C86.1706 89.9439 86.2009 90.5861 86.1919 91.2271C86.1825 91.8639 86.2378 92.4558 87.0128 92.6249C87.235 92.673 87.3362 92.8011 87.29 93.023C87.239 93.268 87.0437 93.2583 86.8503 93.2558C85.9597 93.2402 85.2994 92.6105 85.2731 91.6886C85.2462 90.7468 85.2828 89.8027 85.2606 88.8618C85.249 88.4149 85.4812 87.8446 84.7606 87.6674C84.6815 87.6483 84.6534 87.4243 84.6019 87.2964C85.5631 86.9949 85.1644 86.1658 85.2962 85.5368C85.3587 85.2389 85.6415 85.1574 85.9087 85.1321C86.179 85.1064 86.1812 85.3252 86.19 85.508C86.2256 86.233 85.8503 87.2033 87.185 87.1505C87.2297 87.1489 87.2819 87.3261 87.3403 87.438V87.4383Z" fill="#386F9F"/>
    <path d="M173.212 66.4793L159.417 58.4777C158.548 57.9827 157.41 57.9827 156.534 58.4777L142.631 66.4793C141.735 66.9952 141.125 67.9649 141.125 69.0021V84.9839C141.125 86.0211 141.748 86.9911 142.644 87.5099L146.31 89.5999C148.068 90.4661 148.555 90.4661 149.355 90.4661C151.96 90.4661 153.312 88.8914 153.312 86.1449V70.3668C153.313 70.1439 153.452 69.8124 153.232 69.8124H151.476C151.253 69.8124 150.812 70.1439 150.812 70.3664V86.1446C150.812 87.3621 149.683 88.5736 147.624 87.5446L143.836 85.353C143.704 85.2811 143.625 85.1364 143.625 84.9839V69.0021C143.625 68.8514 143.77 68.7002 143.903 68.623L157.772 60.6352C157.84 60.599 157.916 60.5801 157.993 60.5801C158.07 60.5801 158.146 60.599 158.214 60.6352L171.952 68.6211C172.084 68.7002 172.063 68.8468 172.063 69.0021V84.9839C172.063 85.1364 172.092 85.2849 171.962 85.3583L158.17 93.3508C158.052 93.4218 157.898 93.4218 157.769 93.3508L154.232 91.2418C154.126 91.1799 153.997 91.1577 153.895 91.2149C152.912 91.7721 152.729 91.8461 151.807 92.1658C151.58 92.2449 151.245 92.3821 151.935 92.7686L156.559 95.5043C157.001 95.7593 157.502 95.8936 158.012 95.8936C158.523 95.8945 159.026 95.7601 159.47 95.5043L173.212 87.5099C174.109 86.9874 174.563 86.0211 174.563 84.9839V69.0021C174.562 67.9649 174.109 66.9977 173.212 66.4793V66.4793ZM162.29 82.4514C158.625 82.4514 157.818 81.4405 157.549 79.6183C157.517 79.4221 157.351 79.1874 157.151 79.1874H155.36C155.139 79.1874 154.96 79.4561 154.96 79.6768C154.96 82.0099 156.229 84.8368 162.29 84.8368C166.677 84.8368 169.192 83.1321 169.192 80.1152C169.192 77.1239 167.171 76.3389 162.917 75.7758C158.616 75.2074 158.179 74.9202 158.179 73.9127C158.179 73.0821 158.549 71.9743 161.733 71.9743C164.578 71.9743 165.627 72.5849 166.059 74.5027C166.096 74.683 166.261 74.8124 166.447 74.8124H168.245C168.355 74.8124 168.461 74.7677 168.538 74.6886C168.613 74.6036 168.653 74.4971 168.643 74.3827C168.364 71.0799 166.17 69.5408 161.733 69.5408C157.786 69.5408 155.431 71.2077 155.431 74.0018C155.431 77.0324 157.774 77.8699 161.563 78.2446C166.096 78.6889 166.448 79.3514 166.448 80.243C166.448 81.7918 165.205 82.4514 162.29 82.4514Z" fill="#83CD29"/>
    <path d="M207.44 57.4399H246.56V96.5603H207.44V57.4399Z" fill="#F0DB4F"/>
    <path d="M243.358 87.23C243.072 85.4453 241.908 83.9463 238.461 82.5485C237.263 81.9981 235.928 81.6041 235.531 80.6966C235.389 80.1685 235.371 79.871 235.46 79.5513C235.717 78.5138 236.955 78.1903 237.937 78.4878C238.569 78.6997 239.167 79.1869 239.528 79.9641C241.216 78.871 241.213 78.8781 242.392 78.1269C241.96 77.4578 241.73 77.1491 241.447 76.8628C240.432 75.7288 239.048 75.1447 236.836 75.1894L235.683 75.3385C234.579 75.6175 233.527 76.1972 232.909 76.9744C231.057 79.0756 231.586 82.7531 233.839 84.2666C236.059 85.9328 239.32 86.3119 239.737 87.87C240.142 89.7775 238.335 90.395 236.539 90.1756C235.215 89.9003 234.479 89.2275 233.683 88.0041C232.218 88.8519 232.218 88.8519 230.712 89.7181C231.069 90.4991 231.444 90.8525 232.043 91.5291C234.877 94.4035 241.968 94.2622 243.24 89.9116C243.291 89.7622 243.634 88.766 243.358 87.23ZM228.707 75.4197H225.048L225.033 84.8797C225.033 86.8916 225.137 88.736 224.81 89.3013C224.274 90.4131 222.887 90.2753 222.255 90.0597C221.612 89.7435 221.284 89.2938 220.905 88.6581C220.801 88.4756 220.723 88.3344 220.697 88.3235L217.722 90.1453C218.217 91.1606 218.945 92.0419 219.879 92.6144C221.273 93.4513 223.147 93.7078 225.107 93.2578C226.383 92.8863 227.483 92.1166 228.06 90.945C228.893 89.4091 228.714 87.55 228.707 85.4938C228.725 82.1391 228.707 78.785 228.707 75.4197Z" fill="#323330"/>
    <path d="M302.875 94C302.875 93.9062 302.906 93.8125 302.875 93.7187C302.812 93.625 302.781 93.5625 302.719 93.5C302.562 93.3125 302.406 93.1562 302.219 92.9687L300.375 91.0937L301.812 89.625L302.594 88.7812C302.719 88.6562 302.875 88.4062 302.875 88.2187V88.0937C302.875 87.8125 302.75 87.6562 302.469 87.5937L302.531 87.625H302.312C302.125 87.625 301.594 88.125 301.469 88.2812C301 88.75 300.688 89.1875 300.062 89.6562V85.9375C300.062 85.5937 299.875 85.4375 299.531 85.4375H299.438C299.094 85.4375 298.812 85.5937 298.812 85.9375V94.0312C298.812 94.375 299.094 94.5 299.438 94.5H299.531C299.875 94.5 300.062 94.3437 300.062 94.0312V92.5937L301 93.5C301.281 93.7812 301.562 93.9687 301.812 94.2187C301.938 94.3437 302.188 94.5 302.375 94.5H302.469C302.781 94.5 302.875 94.3437 302.938 94.0937L302.875 94.125V94ZM315.094 87.625H314.969C314.281 87.625 313.656 87.8125 313.094 88.2187C312.156 88.9062 311.625 89.8125 311.625 91V94.0625C311.625 94.4062 311.75 94.5 312.094 94.5H312.188C312.531 94.5 312.875 94.375 312.875 94.0625V91.1875C312.875 90.5625 313 89.9687 313.469 89.5C313.844 89.125 314.312 88.8125 314.844 88.8125C315.25 88.8125 315.719 88.7187 315.719 88.2187C315.719 87.8437 315.438 87.625 315.094 87.625ZM310.281 89.1875C309.938 88.625 309.469 88.1875 308.875 87.9062C307.781 87.375 306.625 87.3125 305.562 87.9375L305.406 88.0312C304.969 88.2812 304.594 88.5937 304.312 89C303.5 90.1875 303.406 91.5312 304.125 92.7812L304.188 92.9062C304.5 93.4375 304.906 93.875 305.438 94.1562C306.562 94.7812 307.781 94.8437 308.906 94.2187L309 94.1562C309.312 93.9687 309.375 93.6562 309.219 93.3437C309.156 93.2187 309.031 93.125 308.906 93.0625H308.844C308.625 93.0312 308.031 93.2812 307.812 93.375C307.375 93.4375 306.875 93.4687 306.438 93.3125L308.812 91.25C309.156 90.9375 309.531 90.5937 309.906 90.3125C310.219 90.0625 310.531 89.7187 310.281 89.2812V89.1875ZM308.125 90.3125L305.469 92.5937C305.375 92.5 305.312 92.375 305.25 92.2812C305.062 91.9687 304.938 91.5937 304.938 91.2187C304.906 90.2812 305.25 89.5 306.094 89.0312C306.719 88.6562 307.406 88.5937 308.094 88.8437C308.438 88.9687 308.844 89.1875 309.062 89.5C308.75 89.7812 308.406 90.0312 308.125 90.3125ZM282.875 85.4375H282.781C282.438 85.4375 282.25 85.5625 282.25 85.9062V88.4375C281.625 87.875 280.875 87.6562 280 87.6562H279.75C279.156 87.6562 278.594 87.75 278.062 88.0625C276.938 88.7187 276.312 89.6875 276.312 91V91.25C276.312 91.8437 276.469 92.3437 276.781 92.875C277.438 94 278.469 94.5625 279.75 94.5625H280C280.594 94.5625 281.219 94.4687 281.719 94.1875C282.844 93.5312 283.5 92.5625 283.5 91.2812V85.9687C283.5 85.5625 283.219 85.4375 282.875 85.4375ZM281.906 92.25C281.438 93.0312 280.75 93.4687 279.844 93.4687C279.469 93.4687 279.094 93.375 278.781 93.1875C277.969 92.75 277.5 92.0312 277.5 91.0937C277.5 90.75 277.562 90.4375 277.719 90.125C278.156 89.2187 278.875 88.7187 279.875 88.7187C280.375 88.7187 280.812 88.875 281.188 89.1562C281.844 89.625 282.219 90.25 282.219 91.0625C282.25 91.5 282.125 91.875 281.906 92.25ZM287.75 87.625H287.562C286.969 87.625 286.375 87.7187 285.875 88.0312C284.75 88.6875 284.125 89.6562 284.125 90.9687V91.2187C284.125 91.8125 284.281 92.3125 284.594 92.8437C285.25 93.9687 286.281 94.5312 287.594 94.5312H287.844C288.438 94.5312 289.031 94.4375 289.562 94.1562C290.688 93.5 291.344 92.5312 291.344 91.25V91C291.344 90.4375 291.156 89.9687 290.906 89.5C290.219 88.25 289.125 87.625 287.75 87.625ZM289.75 92.25C289.281 93 288.625 93.4687 287.719 93.4687C287.312 93.4687 286.906 93.375 286.531 93.1562C285.75 92.6875 285.312 92.0312 285.312 91.125C285.312 90.7812 285.375 90.4687 285.531 90.1562C285.969 89.25 286.688 88.75 287.688 88.75C288.156 88.75 288.562 88.875 288.938 89.125C289.625 89.5937 290.031 90.25 290.031 91.0937C290.063 91.4687 289.969 91.875 289.75 92.25ZM297.406 88.0625L297.375 88.0937C296.844 87.75 296.25 87.625 295.625 87.625H295.375C294.781 87.625 294.188 87.7187 293.688 88.0312C292.562 88.6875 291.938 89.6562 291.938 90.9375V91.1875C291.938 91.5 292 91.7812 292.062 92.0937C292.562 93.8125 293.906 94.7812 295.719 94.6562C296.219 94.625 297.562 94.4687 297.562 93.7187V93.5937C297.562 93.3125 297.344 93.0625 297.094 93L297.062 92.9375H296.844L296.781 93.0312C296.5 93.1562 296.031 93.4062 295.719 93.4062C295.344 93.4062 294.938 93.4062 294.594 93.2187C293.688 92.7812 293.156 92.0625 293.156 91.0625C293.156 90.7187 293.219 90.4062 293.375 90.0937C293.812 89.2187 294.531 88.6562 295.531 88.6875C295.719 88.6875 296.062 88.7812 296.25 88.875C296.406 88.9375 296.812 89.1875 297 89.1875H297.062L297.094 89.125C297.375 89.0625 297.594 88.8437 297.594 88.5625V88.4375C297.594 88.3125 297.531 88.2187 297.469 88.125L297.406 88.0625ZM277.812 78.3125L277.844 78.375C280.312 82.5625 284.625 84.3125 289.344 84.3125C298.469 84.3125 306 80.2187 309.438 71.625C311.75 71.75 314.125 71.0625 315.25 68.8438L315.531 68.2812L314.969 67.9687C313.625 67.1875 311.844 67.0937 310.344 67.5312C310.156 65.9062 309.094 64.5 307.844 63.5L307.344 63.0937L306.938 63.5937C306.094 64.5625 305.844 66.1875 305.969 67.4375C306.062 68.3438 306.344 69.2812 306.906 70.0312C306.469 70.2812 306 70.625 305.562 70.7812C304.688 71.0937 303.719 71.4062 302.781 71.4062H300.688V67H296.625V59.1875H291.938V62.9375H284.125V67H280.062V71.375H276.562L276.5 71.8437C276.344 73.8437 276.594 75.7812 277.438 77.625L277.812 78.3125ZM296.625 67.9375H300.062V71.375H296.625V67.9375ZM292.562 59.8125H296V63.25H292.562V59.8125ZM292.562 63.875H296V67.3125H292.562V63.875ZM292.562 67.9375H296V71.375H292.562V67.9375ZM288.5 63.875H291.938V67.3125H288.5V63.875ZM288.5 67.9375H291.938V71.375H288.5V67.9375ZM288.844 77.6875C288.844 78.2187 288.406 78.6562 287.875 78.6562C287.344 78.6562 286.906 78.2187 286.906 77.6875C286.906 77.1562 287.344 76.7187 287.875 76.7187C288.406 76.75 288.844 77.1562 288.844 77.6875ZM284.75 63.875H287.875V67.3125H284.75V63.875ZM284.75 67.9375H287.875V71.375H284.75V67.9375ZM280.688 67.9375H284.125V71.375H280.688V67.9375ZM281.438 79.8125C281.938 79.8125 282.438 79.8125 282.906 79.7812C284.125 79.7187 285.188 79.5625 286.062 79.3125C286.781 80.9687 288.094 82.5 290.438 83.625L289.344 83.6562C284.406 83.625 281.75 81.9687 279.562 79.7812C280.219 79.8125 280.844 79.8125 281.438 79.8125ZM287.875 78.375C288.25 78.375 288.562 78.0625 288.562 77.6875C288.562 77.5937 288.531 77.5 288.5 77.4375C288.438 77.5312 288.375 77.5937 288.25 77.5937C288.094 77.5937 287.969 77.4687 287.969 77.3125C287.969 77.2187 288.031 77.125 288.094 77.0625C288.062 77.0312 287.969 77 287.875 77C287.5 77 287.188 77.3125 287.188 77.6875C287.219 78.0625 287.5 78.375 287.875 78.375Z" fill="#019BC6"/>
    <path d="M370.969 82.1563C369.5 82.1251 368.219 83.2188 368.062 84.6876C368.062 84.7501 368.094 84.7813 368.156 84.7813H373.781C373.844 84.7813 373.875 84.7501 373.875 84.6876C373.75 83.1876 372.469 82.0626 370.969 82.1563Z" fill="#CF0A2C"/>
    <path d="M383.031 63.2188L371.031 76.6562C370.906 76.8125 370.656 76.8125 370.5 76.6875L370.469 76.6562L364.406 70.375C364.281 70.25 364.281 70.0625 364.375 69.9062L366.406 67.3125C366.531 67.1563 366.75 67.0938 366.906 67.2188C366.938 67.25 366.969 67.25 366.969 67.2813L370.406 71.0625C370.531 71.2187 370.781 71.2187 370.938 71.0937L370.969 71.0625L380.563 58.0312C380.656 57.9062 380.625 57.75 380.5 57.6562C380.469 57.625 380.406 57.625 380.344 57.5938H346.781C346.625 57.625 346.5 57.75 346.5 57.9063V96.0937C346.5 96.25 346.625 96.375 346.781 96.375H383.219C383.375 96.375 383.5 96.25 383.5 96.0937V63.4063C383.5 63.25 383.375 63.1563 383.25 63.1563C383.156 63.125 383.094 63.1562 383.031 63.2188ZM356.844 92.125C354.438 92.2188 352.094 91.4062 350.313 89.8125C350.188 89.6875 350.156 89.5 350.281 89.3437L351.688 87.3437C351.813 87.1875 352.031 87.1563 352.188 87.25L352.219 87.2812C353.531 88.5 355.219 89.1562 357 89.1562C358.875 89.1562 359.781 88.2812 359.781 87.375C359.781 84.5312 350.563 86.5 350.563 80.4687C350.563 77.8125 352.875 75.5937 356.625 75.5937C358.781 75.5312 360.906 76.25 362.594 77.625C362.719 77.75 362.75 77.9687 362.625 78.0937L361.156 80.0312C361.031 80.1875 360.813 80.2188 360.656 80.0938C359.406 79.0937 357.875 78.5625 356.281 78.5937C354.813 78.5937 354 79.25 354 80.1875C354 82.7187 363.188 81.0312 363.188 87C363.219 89.9062 361.125 92.125 356.844 92.125ZM376.938 86.5625C376.938 86.75 376.781 86.875 376.625 86.875H368.219C368.156 86.875 368.125 86.9062 368.125 86.9688C368.406 88.5937 369.875 89.7188 371.531 89.625C372.594 89.5937 373.594 89.2813 374.438 88.6563C374.563 88.5625 374.781 88.5625 374.875 88.7187L374.906 88.75L375.938 90.25C376.031 90.375 376 90.5625 375.875 90.6875C374.531 91.6875 372.875 92.1875 371.219 92.125C367.594 92.125 364.875 89.6875 364.875 85.875C364.781 82.5313 367.406 79.75 370.75 79.6562H371.031C374.563 79.6562 377 82.3125 377 86.1875L376.938 86.5625Z" fill="#CF0A2C"/>
</svg>